<svg xmlns="http://www.w3.org/2000/svg" xml:space="preserve" id="supply" width="512" height="512" x="0" y="0" enable-background="new 0 0 512 512" version="1.1" viewBox="0 0 512 512">
  <g>
    <linearGradient id="SVGID_1_" x1="410.359" x2="410.359" y1="3" y2="508.015" gradientUnits="userSpaceOnUse">
      <stop offset="0" style="stop-color:#00ffed"></stop>
      <stop offset=".99" style="stop-color:#9d00c6"></stop>
    </linearGradient>
    <path fill="url(#SVGID_1_)" d="M451.384,211.52c-0.383-3.743-3.717-6.444-7.465-6.072c-3.732,0.383-6.455,3.722-6.072,7.454
		c0.633,6.21,0.952,12.537,0.952,18.801c0,49.063-19.412,95.267-53.78,129.454l2.244-13.324c0.627-3.7-1.872-7.209-5.583-7.837
		c-3.705-0.659-7.209,1.872-7.837,5.583l-5.487,32.55c-0.021,0.096,0,0.181-0.016,0.266c-0.016,0.149-0.011,0.276-0.016,0.426
		c-0.048,0.712,0.005,1.414,0.181,2.105c0.021,0.096,0.026,0.191,0.053,0.287c0.234,0.755,0.617,1.456,1.101,2.105
		c0.048,0.063,0.059,0.148,0.112,0.212c0.074,0.096,0.175,0.171,0.255,0.256c0.091,0.096,0.154,0.213,0.244,0.309
		c0.064,0.063,0.149,0.085,0.213,0.138c0.58,0.542,1.218,0.968,1.914,1.266c0.096,0.042,0.187,0.063,0.282,0.096
		c0.771,0.287,1.568,0.468,2.387,0.468l0,0l0,0l0,0h0.006c0.388,0,0.781-0.032,1.175-0.106l32.507-5.742
		c3.701-0.648,6.173-4.189,5.52-7.88c-0.654-3.7-4.169-6.178-7.891-5.519l-9.475,1.681c35.506-36.495,55.503-85.166,55.503-136.792
		C452.41,224.981,452.064,218.187,451.384,211.52z"></path>
    <linearGradient id="SVGID_2_" x1="272.575" x2="272.575" y1="3" y2="508.015" gradientUnits="userSpaceOnUse">
      <stop offset="0" style="stop-color:#00ffed"></stop>
      <stop offset=".99" style="stop-color:#9d00c6"></stop>
    </linearGradient>
    <path fill="url(#SVGID_2_)" d="M173.313,68.646C199.078,55.545,226.901,48.909,256,48.909c35.24,0,69.821,10.325,99.224,29.317
		l-13.569,0.67c-3.753,0.181-6.646,3.381-6.454,7.124c0.181,3.647,3.185,6.476,6.79,6.476c0.111,0,0.229,0,0.34-0.01l32.97-1.627
		c0.144-0.011,0.282-0.064,0.425-0.075c0.33-0.042,0.649-0.085,0.974-0.17c0.202-0.053,0.394-0.128,0.59-0.202
		c0.293-0.106,0.574-0.223,0.851-0.372c0.197-0.096,0.378-0.224,0.563-0.34c0.245-0.171,0.484-0.341,0.713-0.532
		c0.181-0.159,0.34-0.329,0.505-0.5c0.111-0.116,0.239-0.212,0.335-0.329c0.059-0.074,0.063-0.159,0.117-0.224
		c0.106-0.148,0.244-0.266,0.34-0.414c0.33-0.521,0.563-1.085,0.745-1.67c0.031-0.117,0.042-0.234,0.068-0.351
		c0.176-0.691,0.234-1.394,0.182-2.105c-0.006-0.117,0.005-0.224-0.011-0.341c-0.069-0.596-0.208-1.19-0.441-1.765l-12.591-30.519
		c-1.436-3.478-5.423-5.126-8.89-3.701c-3.472,1.436-5.125,5.413-3.689,8.89l3.626,8.794C328.751,45.708,292.708,35.298,256,35.298
		c-31.263,0-61.154,7.136-88.85,21.204c-3.354,1.701-4.689,5.806-2.982,9.145C165.869,69.007,169.963,70.347,173.313,68.646z"></path>
    <linearGradient id="SVGID_3_" x1="97.352" x2="97.352" y1="3" y2="508.015" gradientUnits="userSpaceOnUse">
      <stop offset="0" style="stop-color:#00ffed"></stop>
      <stop offset=".99" style="stop-color:#9d00c6"></stop>
    </linearGradient>
    <path fill="url(#SVGID_3_)" d="M73.202,231.702c0-0.063,0.005-0.139,0.005-0.202l8.358,11.282c2.233,3.03,6.497,3.658,9.518,1.414
		c3.025-2.232,3.657-6.497,1.425-9.517l-19.651-26.521c-0.042-0.054-0.096-0.085-0.138-0.139c-0.075-0.106-0.171-0.181-0.25-0.266
		c-0.463-0.531-0.994-0.968-1.585-1.329c-0.122-0.074-0.223-0.159-0.346-0.224c-0.69-0.351-1.436-0.574-2.212-0.681
		c-0.09-0.01-0.159-0.074-0.244-0.074c-0.085-0.011-0.159,0.021-0.25,0.021c-0.202-0.011-0.398-0.063-0.601-0.063
		c-0.606,0.021-1.196,0.127-1.766,0.298c-0.096,0.031-0.181,0.074-0.276,0.105c-0.664,0.234-1.281,0.574-1.85,0.989
		c-0.117,0.096-0.239,0.159-0.352,0.255c-0.468,0.404-0.898,0.852-1.249,1.372l-18.401,27.393c-2.096,3.115-1.266,7.348,1.855,9.442
		c1.164,0.776,2.482,1.148,3.791,1.148c2.19,0,4.338-1.042,5.651-2.998l5.077-7.571c1.319,61.664,31.721,119.597,82.039,155.634
		c1.202,0.872,2.584,1.276,3.956,1.276c2.121,0,4.211-0.989,5.54-2.839c2.19-3.063,1.483-7.306-1.574-9.496
		C101.791,346.109,73.202,290.517,73.202,231.702z"></path>
    <linearGradient id="SVGID_4_" x1="256" x2="256" y1="3" y2="508.015" gradientUnits="userSpaceOnUse">
      <stop offset="0" style="stop-color:#00ffed"></stop>
      <stop offset=".99" style="stop-color:#9d00c6"></stop>
    </linearGradient>
    <path fill="url(#SVGID_4_)" d="M359.067,207.638l-18.8-4.02c-1.324-3.977-2.946-7.868-4.823-11.622l10.453-16.152
		c2.871-4.424,2.265-10.135-1.468-13.867l-18.693-18.693c-3.626-3.637-9.576-4.265-13.877-1.479l-16.152,10.453
		c-3.749-1.871-7.646-3.488-11.612-4.807l-4.024-18.811c-1.102-5.157-5.562-8.773-10.842-8.773h-26.451
		c-5.279,0-9.746,3.616-10.846,8.773l-4.025,18.811c-3.982,1.329-7.874,2.945-11.612,4.817l-16.152-10.464
		c-4.307-2.775-10.24-2.158-13.871,1.479l-18.694,18.693c-3.738,3.723-4.344,9.433-1.473,13.867l10.453,16.163
		c-1.872,3.743-3.488,7.635-4.817,11.611l-18.806,4.02c-5.163,1.106-8.768,5.572-8.768,10.847v26.446
		c0,5.284,3.604,9.74,8.768,10.846l18.806,4.02c1.329,3.978,2.945,7.88,4.817,11.623l-10.459,16.152
		c-2.865,4.435-2.26,10.134,1.473,13.866l18.705,18.694c3.626,3.637,9.576,4.253,13.866,1.468l16.147-10.453
		c3.759,1.882,7.65,3.498,11.617,4.816l4.03,18.812c1.101,5.157,5.562,8.762,10.847,8.762h26.435c5.285,0,9.746-3.604,10.847-8.762
		l4.03-18.812c3.966-1.318,7.858-2.935,11.617-4.806l16.158,10.452c4.301,2.786,10.229,2.148,13.86-1.478l18.694-18.694
		c3.737-3.732,4.344-9.432,1.473-13.877l-10.453-16.142c1.872-3.743,3.488-7.635,4.817-11.623l18.801-4.02
		c5.168-1.105,8.772-5.562,8.772-10.846v-26.446C367.835,213.199,364.23,208.744,359.067,207.638z M354.224,242.889l-18.253,3.913
		c-3.955,0.851-7.034,3.669-8.24,7.519c-1.313,4.168-3.005,8.24-5.025,12.122c-1.871,3.583-1.674,7.763,0.521,11.154l10.14,15.653
		l-15.818,15.822l-15.657-10.134c-3.334-2.158-7.667-2.36-11.155-0.531c-3.892,2.042-7.976,3.722-12.139,5.04
		c-3.859,1.213-6.667,4.307-7.507,8.252l-3.902,18.236h-22.374l-3.902-18.247c-0.851-3.956-3.663-7.039-7.518-8.252
		c-4.158-1.308-8.23-2.998-12.128-5.029c-3.525-1.829-7.832-1.627-11.149,0.521l-15.663,10.145l-15.818-15.822l10.14-15.653
		c2.19-3.392,2.393-7.571,0.521-11.154c-2.02-3.892-3.716-7.976-5.029-12.133c-1.212-3.85-4.296-6.668-8.263-7.519l-18.226-3.902
		v-22.373l18.236-3.902c3.951-0.841,7.04-3.647,8.252-7.508c1.313-4.168,3.01-8.252,5.029-12.122
		c1.872-3.584,1.681-7.752-0.521-11.155l-10.14-15.674l15.818-15.813l15.663,10.134c3.323,2.159,7.624,2.372,11.165,0.532
		c3.865-2.021,7.943-3.711,12.123-5.03c3.854-1.223,6.656-4.307,7.507-8.262l3.902-18.237h22.374l3.902,18.237
		c0.851,3.955,3.652,7.039,7.518,8.272c4.169,1.298,8.241,2.999,12.112,5.009c1.595,0.84,3.376,1.276,5.146,1.276l0,0
		c2.121,0,4.2-0.617,6.019-1.798l15.663-10.134l15.818,15.813l-10.14,15.674c-2.201,3.393-2.393,7.571-0.521,11.155
		c2.031,3.87,3.723,7.954,5.03,12.122c1.212,3.86,4.302,6.667,8.263,7.508l18.226,3.902V242.889z"></path>
    <linearGradient id="SVGID_5_" x1="256" x2="256" y1="3" y2="508.015" gradientUnits="userSpaceOnUse">
      <stop offset="0" style="stop-color:#00ffed"></stop>
      <stop offset=".99" style="stop-color:#9d00c6"></stop>
    </linearGradient>
    <path fill="url(#SVGID_5_)" d="M256,171.133c-33.4,0-60.58,27.169-60.58,60.569c0,33.411,27.18,60.58,60.58,60.58
		s60.58-27.169,60.58-60.58C316.58,198.302,289.4,171.133,256,171.133z M256,278.671c-25.897,0-46.969-21.065-46.969-46.969
		c0-25.894,21.071-46.958,46.969-46.958c25.898,0,46.97,21.064,46.97,46.958C302.97,257.605,281.898,278.671,256,278.671z"></path>
    <linearGradient id="SVGID_6_" x1="256" x2="256" y1="3" y2="508.015" gradientUnits="userSpaceOnUse">
      <stop offset="0" style="stop-color:#00ffed"></stop>
      <stop offset=".99" style="stop-color:#9d00c6"></stop>
    </linearGradient>
    <path fill="url(#SVGID_6_)" d="M256,211.2c6.642,0,11.602,3.615,11.602,6.849c0,3.753,3.052,6.805,6.806,6.805
		c3.759,0,6.806-3.052,6.806-6.805c0-9.539-7.699-17.27-18.407-19.641v-5.137c0-3.753-3.046-6.795-6.806-6.795
		c-3.759,0-6.805,3.042-6.805,6.795v5.137c-10.709,2.371-18.407,10.102-18.407,19.641c0,16.131,15.047,18.778,24.032,20.353
		c11.282,1.988,12.781,3.2,12.781,6.965c0,3.232-4.96,6.849-11.602,6.849c-6.641,0-11.601-3.616-11.601-6.849
		c0-3.765-3.047-6.806-6.806-6.806s-6.806,3.041-6.806,6.806c0,9.528,7.698,17.27,18.407,19.641v5.125
		c0,3.765,3.046,6.806,6.805,6.806c3.76,0,6.806-3.041,6.806-6.806v-5.125c10.708-2.371,18.407-10.112,18.407-19.641
		c0-16.142-15.047-18.779-24.032-20.363c-11.276-1.988-12.781-3.201-12.781-6.954C244.399,214.815,249.359,211.2,256,211.2z"></path>
    <linearGradient id="SVGID_7_" x1="255.998" x2="255.998" y1="3" y2="508.015" gradientUnits="userSpaceOnUse">
      <stop offset="0" style="stop-color:#00ffed"></stop>
      <stop offset=".99" style="stop-color:#9d00c6"></stop>
    </linearGradient>
    <path fill="url(#SVGID_7_)" d="M338.326,352.192h-98.563c-7.927,0-14.377,6.454-14.377,14.377v1.393h-38.547
		c-5.917,0-10.873,3.116-12.931,8.146l-13.175,32.146c-0.606,1.489-1.441,3.53-1.441,6.221v27.01c0,7.922,6.45,14.377,14.377,14.377
		h0.548c2.169,11.835,12.516,20.842,24.968,20.842s22.799-9.007,24.974-20.842h63.685c2.175,11.835,12.521,20.842,24.974,20.842
		s22.793-9.007,24.968-20.842h0.542c7.928,0,14.377-6.455,14.377-14.377v-74.914C352.703,358.646,346.254,352.192,338.326,352.192z
		 M173.334,413.399l13.026-31.773c0.112-0.031,0.276-0.053,0.479-0.053h38.547v20.565l-52.487,14.771v-2.329
		C172.973,414.165,173.17,413.814,173.334,413.399z M199.185,463.091c-6.519,0-11.824-5.306-11.824-11.824
		s5.306-11.825,11.824-11.825s11.825,5.307,11.825,11.825S205.703,463.091,199.185,463.091z M312.816,463.091
		c-6.519,0-11.825-5.306-11.825-11.824s5.307-11.825,11.825-11.825s11.824,5.307,11.824,11.825S319.335,463.091,312.816,463.091z
		 M339.092,441.483c0,0.404-0.355,0.766-0.766,0.766h-1.808c-3.652-9.57-12.866-16.419-23.702-16.419
		c-10.841,0-20.056,6.849-23.708,16.419h-66.216c-3.652-9.57-12.867-16.419-23.708-16.419s-20.05,6.849-23.702,16.419h-1.813
		c-0.409,0-0.76-0.361-0.76-0.766l-0.006-10.442l52.482-14.76v6.742c0,3.754,3.047,6.806,6.806,6.806
		c3.76,0,6.806-3.052,6.806-6.806v-48.256v-8.198c0-0.404,0.356-0.766,0.766-0.766h98.563c0.41,0,0.766,0.361,0.766,0.766V441.483z"></path>
    <linearGradient id="SVGID_8_" x1="289.047" x2="289.047" y1="3" y2="508.015" gradientUnits="userSpaceOnUse">
      <stop offset="0" style="stop-color:#00ffed"></stop>
      <stop offset=".99" style="stop-color:#9d00c6"></stop>
    </linearGradient>
    <path fill="url(#SVGID_8_)" d="M326.752,376.734h-75.409c-3.765,0-6.806,3.053-6.806,6.806c0,3.765,3.041,6.806,6.806,6.806h75.409
		c3.759,0,6.806-3.041,6.806-6.806C333.558,379.787,330.511,376.734,326.752,376.734z"></path>
    <linearGradient id="SVGID_9_" x1="289.047" x2="289.047" y1="3" y2="508.015" gradientUnits="userSpaceOnUse">
      <stop offset="0" style="stop-color:#00ffed"></stop>
      <stop offset=".99" style="stop-color:#9d00c6"></stop>
    </linearGradient>
    <path fill="url(#SVGID_9_)" d="M326.752,401.479h-75.409c-3.765,0-6.806,3.041-6.806,6.806c0,3.754,3.041,6.806,6.806,6.806h75.409
		c3.759,0,6.806-3.052,6.806-6.806C333.558,404.521,330.511,401.479,326.752,401.479z"></path>
    <linearGradient id="SVGID_10_" x1="434.125" x2="434.125" y1="3" y2="508.015" gradientUnits="userSpaceOnUse">
      <stop offset="0" style="stop-color:#00ffed"></stop>
      <stop offset=".99" style="stop-color:#9d00c6"></stop>
    </linearGradient>
    <path fill="url(#SVGID_10_)" d="M500.979,93.433l-3.828-47.682c-0.287-3.541-3.243-6.253-6.784-6.253h-31.955
		c-3.541,0-6.497,2.712-6.778,6.253l-3.558,44.257l-26.945,16.695V93.985c0-2.467-1.34-4.753-3.498-5.955
		c-2.159-1.201-4.796-1.138-6.896,0.17l-40.265,24.947c-1.999,1.244-3.222,3.435-3.222,5.784v64.11c0,3.765,3.052,6.806,6.811,6.806
		h120.135c3.753,0,6.805-3.041,6.805-6.806V93.985C501,93.805,500.99,93.624,500.979,93.433z M484.082,53.099l1.048,13.037h-21.48
		l1.048-13.037H484.082z M447.779,106.203v70.044h-26.648v-53.529L447.779,106.203z M380.866,122.718l26.648-16.515v12.729v57.315
		h-26.648V122.718z M487.39,176.247h-26V94.262l1.17-14.515h23.66l1.17,14.504V176.247z"></path>
    <linearGradient id="SVGID_11_" x1="79.701" x2="79.701" y1="3" y2="508.015" gradientUnits="userSpaceOnUse">
      <stop offset="0" style="stop-color:#00ffed"></stop>
      <stop offset=".99" style="stop-color:#9d00c6"></stop>
    </linearGradient>
    <path fill="url(#SVGID_11_)" d="M148.403,173.323V68.985c0-9.124-7.417-16.535-16.53-16.535H27.53
		C18.417,52.45,11,59.861,11,68.985v104.338c0,9.113,7.417,16.524,16.53,16.524h104.343
		C140.986,189.848,148.403,182.437,148.403,173.323z M68.55,66.062h22.31v39.153H68.55V66.062z M24.611,173.323V68.985
		c0-1.616,1.309-2.924,2.919-2.924h27.408v45.958c0,3.765,3.047,6.806,6.806,6.806h35.921c3.754,0,6.806-3.041,6.806-6.806V66.062
		h27.402c1.611,0,2.919,1.308,2.919,2.924v104.338c0,1.605-1.308,2.924-2.919,2.924H27.53
		C25.92,176.247,24.611,174.929,24.611,173.323z"></path>
  </g>
</svg>
