<svg xmlns="http://www.w3.org/2000/svg" fill-rule="evenodd" stroke-linejoin="round" stroke-miterlimit="2" clip-rule="evenodd" viewBox="0 0 32 32" id="ai-setting">
  <g transform="translate(-208 -156)">
    <path fill="#545af2" d="m220.056 160.086.678-3.123a1 1 0 0 1 .825-.776 16.046 16.046 0 0 1 4.882 0 1 1 0 0 1 .825.776l.678 3.123c.58.192 1.146.426 1.691.701l2.689-1.729a1 1 0 0 1 1.131.035 15.962 15.962 0 0 1 3.452 3.452 1 1 0 0 1 .035 1.131l-1.729 2.689c.275.545.509 1.111.701 1.691l3.123.678a1 1 0 0 1 .776.825 16.046 16.046 0 0 1 0 4.882 1 1 0 0 1-.776.825l-3.123.678c-.192.58-.426 1.146-.701 1.691l1.729 2.689a1 1 0 0 1-.035 1.131 15.962 15.962 0 0 1-3.452 3.452 1 1 0 0 1-1.131.035l-2.689-1.729c-.545.275-1.111.509-1.691.701l-.678 3.123a1 1 0 0 1-.825.776 16.046 16.046 0 0 1-4.882 0 1 1 0 0 1-.825-.776l-.678-3.123a12.417 12.417 0 0 1-1.691-.701l-2.689 1.729a1 1 0 0 1-1.131-.035 15.962 15.962 0 0 1-3.452-3.452 1 1 0 0 1-.035-1.131l1.729-2.689a12.417 12.417 0 0 1-.701-1.691l-3.123-.678a1 1 0 0 1-.776-.825 16.046 16.046 0 0 1 0-4.882 1 1 0 0 1 .776-.825l3.123-.678c.192-.58.426-1.146.701-1.691l-1.729-2.689a1 1 0 0 1 .035-1.131 15.962 15.962 0 0 1 3.452-3.452 1 1 0 0 1 1.131-.035l2.689 1.729a12.417 12.417 0 0 1 1.691-.701Z"></path>
    <circle cx="224" cy="172.5" r="8.5" fill="#fff" transform="translate(-13.177 -10.647)scale(1.05882)"></circle>
    <path fill="#545af2" d="M221 175v-4.002c0-.551.447-.998.998-.998h.004c.551 0 .998.447.998.998V175a1 1 0 0 0 2 0v-4.002a2.998 2.998 0 0 0-2.998-2.998h-.004a2.998 2.998 0 0 0-2.998 2.998V175a1 1 0 0 0 2 0Z"></path>
    <path fill="#545af2" d="M220 174h4a1 1 0 0 0 0-2h-4a1 1 0 0 0 0 2zm7-5v6a1 1 0 0 0 2 0v-6a1 1 0 0 0-2 0z"></path>
  </g>
</svg>
