<svg xmlns="http://www.w3.org/2000/svg" fill="none" viewBox="0 0 128 128" id="Chipset">
  <path fill="#b57edc" d="M29.8205 72.6634H32.8205C32.8205 71.446 32.0848 70.3493 30.9583 69.8876L29.8205 72.6634ZM64.4928 84.6691C65.4146 83.2923 65.0458 81.429 63.6691 80.5072C62.2923 79.5854 60.429 79.9542 59.5072 81.3309L64.4928 84.6691ZM56.7502 88.3123L55.6411 85.5249L56.7502 88.3123ZM60.44 85.33L57.9471 83.6609L60.44 85.33ZM86.8025 111V114V111ZM23.3165 69.9974L22.1787 72.7733L23.3165 69.9974ZM55.8648 111L55.8648 114L55.8648 111ZM31.6171 53.0102L29.4088 50.9795L31.6171 53.0102ZM33.6399 48.7818L30.6731 48.3368L33.6399 48.7818ZM39.0923 93.2606L38.6153 90.2988L39.0923 93.2606ZM92.4208 93.1515L95.3162 92.3663C95.2918 92.2764 95.2632 92.1876 95.2305 92.1002L92.4208 93.1515ZM101 46.7758C101 61.4182 98.9356 67.2732 96.6185 70.2041L101.325 73.9252C104.992 69.2875 107 61.607 107 46.7758H101ZM70.0342 19C78.8314 19 86.5911 21.6516 92.101 26.3673C97.5602 31.0397 101 37.8907 101 46.7758H107C107 36.1949 102.836 27.6579 96.0024 21.8089C89.219 16.0033 79.9959 13 70.0342 13V19ZM24.0975 65.6194L33.8254 55.0409L29.4088 50.9795L19.681 61.5581L24.0975 65.6194ZM30.9583 69.8876L24.4543 67.2216L22.1787 72.7733L28.6826 75.4393L30.9583 69.8876ZM32.8205 85.3624V72.6634H26.8205V85.3624H32.8205ZM47.3879 88.8862L38.6153 90.2988L39.5692 96.2225L48.3417 94.8099L47.3879 88.8862ZM50.8648 103V91.8481H44.8648V103H50.8648ZM86.8025 108L55.8648 108L55.8648 114L86.8025 114V108ZM89.5253 93.9367L91.6282 101.691L97.4191 100.121L95.3162 92.3663L89.5253 93.9367ZM48.974 94.6355L57.8594 91.0997L55.6411 85.5249L46.7556 89.0607L48.974 94.6355ZM62.9328 86.9991L64.4928 84.6691L59.5072 81.3309L57.9471 83.6609L62.9328 86.9991ZM40.6287 32.7137C48.0449 20.3612 59.6888 19 70.0342 19V13C59.2988 13 44.6452 14.3673 35.4846 29.6252L40.6287 32.7137ZM31.7491 41.1633L30.6731 48.3368L36.6067 49.2268L37.6827 42.0534L31.7491 41.1633ZM35.4846 29.6252C33.2896 33.2812 32.3184 37.368 31.7491 41.1633L37.6827 42.0534C38.207 38.5581 39.0289 35.3782 40.6287 32.7137L35.4846 29.6252ZM57.8594 91.0997C59.9263 90.2772 61.6952 88.8475 62.9328 86.9991L57.9471 83.6609C57.3846 84.5011 56.5805 85.151 55.6411 85.5249L57.8594 91.0997ZM86.8025 114C94.049 114 99.3157 107.115 97.4191 100.121L91.6282 101.691C92.4903 104.87 90.0964 108 86.8025 108V114ZM19.681 61.5581C16.3813 65.1463 17.6681 70.9244 22.1787 72.7733L24.4543 67.2216C23.81 66.9575 23.6262 66.132 24.0975 65.6194L19.681 61.5581ZM44.8648 103C44.8648 109.075 49.7897 114 55.8648 114L55.8648 108C53.1034 108 50.8648 105.761 50.8648 103H44.8648ZM33.8254 55.0409C35.3122 53.424 36.2809 51.399 36.6067 49.2268L30.6731 48.3368C30.525 49.3242 30.0847 50.2446 29.4088 50.9795L33.8254 55.0409ZM26.8205 85.3624C26.8205 92.1352 32.8825 97.2992 39.5692 96.2225L38.6153 90.2988C35.5759 90.7882 32.8205 88.441 32.8205 85.3624H26.8205ZM96.6185 70.2041C91.4986 76.6802 86.0249 84.6185 89.611 94.2028L95.2305 92.1002C92.9397 85.9776 96.0444 80.6049 101.325 73.9252L96.6185 70.2041Z" class="color1b1b1b svgShape"></path>
  <rect width="36" height="36" x="51" y="33" stroke="#d1d1d1" stroke-width="6" rx="8" class="colorStroke1b1b1b svgStroke"></rect>
  <path fill="#b57edc" d="M87 53H84V59H87V53zM93 59C94.6569 59 96 57.6569 96 56 96 54.3431 94.6569 53 93 53V59zM87 59H93V53H87V59zM51 53H54V59H51V53zM45 59C43.3431 59 42 57.6569 42 56 42 54.3431 43.3431 53 45 53V59zM51 59H45V53H51V59zM87 43H84V49H87V43zM93 49C94.6569 49 96 47.6569 96 46 96 44.3431 94.6569 43 93 43V49zM87 49H93V43H87V49zM51 43H54V49H51V43zM45 49C43.3431 49 42 47.6569 42 46 42 44.3431 43.3431 43 45 43V49zM51 49H45V43H51V49z" class="color1b1b1b svgShape"></path>
  <rect width="14" height="14" x="62" y="44" stroke="#d1d1d1" stroke-width="6" rx="4" class="colorStroke1b1b1b svgStroke"></rect>
</svg>
