<svg xmlns="http://www.w3.org/2000/svg" viewBox="0 0 16 16" id="insight">
  <defs>
    <linearGradient id="a" x1=".5" x2="15.5" y1="8" y2="8" gradientUnits="userSpaceOnUse">
      <stop offset="0" stop-color="#9d3adf"></stop>
      <stop offset=".206" stop-color="#8442d8"></stop>
      <stop offset=".638" stop-color="#4757c6"></stop>
      <stop offset="1" stop-color="#106ab6"></stop>
    </linearGradient>
  </defs>
  <path fill="url(#a)" d="M12.5.5c-.8832,0-1.6702.3907-2.2197,1H3C1.6216,1.5.5,2.6211.5,4v9c0,1.3789,1.1216,2.5,2.5,2.5h9c1.3784,0,2.5-1.1211,2.5-2.5v-7.2803c.6093-.5495,1-1.3365,1-2.2197,0-1.6543-1.3457-3-3-3ZM13.5,13c0,.8271-.6729,1.5-1.5,1.5H3c-.8271,0-1.5-.6729-1.5-1.5V4c0-.8271.6729-1.5,1.5-1.5h6.6843c-.1121.3143-.1843.6476-.1843,1,0,1.6543,1.3457,3,3,3,.3524,0,.6857-.0722,1-.1843v6.6843ZM12.5,5.5c-1.103,0-2-.8975-2-2s.897-2,2-2,2,.8975,2,2-.897,2-2,2ZM11.3535,6.6465c.1953.1953.1953.5117,0,.707l-3,3c-.0977.0977-.2256.1465-.3535.1465s-.2559-.0488-.3535-.1465l-1.6465-1.6465-1.6465,1.6465c-.1953.1953-.5117.1953-.707,0s-.1953-.5117,0-.707l2-2c.1953-.1953.5117-.1953.707,0l1.6465,1.6465,2.6465-2.6465c.1953-.1953.5117-.1953.707,0Z"></path>
</svg>
