<svg xmlns="http://www.w3.org/2000/svg" enable-background="new 0 0 100 100" viewBox="0 0 100 100" id="whatsapp">
  <g id="Layer_2">
    <path fill="#f1f1f1" fill-rule="evenodd" d="M82.773,17.048c-38.434-37.321-98.728,8.848-72.606,55.645c-0.001,0-6.545,23.896-6.545,23.896
				l24.455-6.412C74.864,114.914,119.655,54.965,82.773,17.048z" clip-rule="evenodd"></path>
    <path fill="#66e066" fill-rule="evenodd" d="M50.143,88.745c-7.593,0.027-14.974-2.253-21.34-6.295c0,0-14.796,3.879-14.796,3.879l3.95-14.421
				c-4.438-6.577-6.941-14.291-6.907-22.275C10.98,15.084,53.475-2.531,77.796,22.018C102.312,46.358,84.702,88.821,50.143,88.745z" clip-rule="evenodd"></path>
    <path fill="#f1f1f1" fill-rule="evenodd" d="M71.585,59.476c-1.175-0.588-6.953-3.431-8.03-3.823c-1.077-0.392-1.861-0.588-2.644,0.589
				c-0.784,1.176-3.034,3.822-3.72,4.605c-0.685,0.785-1.371,0.883-2.546,0.295c-2.539,0.339-15.564-10.676-15.988-13.97
				c-0.685-1.175-0.073-1.812,0.516-2.398c1.023-1.123,2.318-2.535,2.937-4.018c0.392-0.785,0.196-1.471-0.098-2.059
				c-0.294-0.588-2.578-6.4-3.623-8.723c-0.88-1.957-1.807-1.996-2.644-2.031c-1.983,0.031-3.518-0.484-5.386,1.443
				c-7.004,6.741-3.792,16.214,0.685,21.955c0.587,0.784,8.13,13.028,20.075,17.738c9.927,3.915,11.947,3.136,14.102,2.94
				c2.155-0.196,6.953-2.842,7.932-5.586c0.979-2.744,0.979-5.096,0.686-5.587C73.544,60.358,72.76,60.064,71.585,59.476z" clip-rule="evenodd"></path>
    <g>
      <path d="M77.964,21.851c-13.416-13.904-36.807-15.395-51.875-3.3c-1.425,1.134,0.26,3.277,1.694,2.186
				c23.859-18.569,59.01-1.301,58.925,28.933C86.7,69.828,70.296,86.227,50.126,86.227c-7.121,0.024-14.034-2.125-19.999-5.918
				c-0.318-0.188-0.7-0.24-1.055-0.147L17.025,83.32l3.202-11.689c0.102-0.375,0.043-0.774-0.163-1.102
				c-9.668-13.7-8.366-33.598,3.3-45.752c1.215-1.325-0.762-3.206-2.026-1.883c-6.788,7.3-10.529,16.798-10.533,26.745
				c-0.017,7.8,2.314,15.374,6.594,21.847c0,0-3.674,13.413-3.674,13.413c-0.3,0.981,0.692,2.001,1.684,1.703
				c0,0,13.806-3.62,13.806-3.62C69.034,107.092,110.293,55.326,77.964,21.851z"></path>
      <path d="M83.418,16.402C44.483-21.442-16.819,24.896,9.089,72.643c-0.001,0-6.327,23.101-6.327,23.101
				c-0.3,0.982,0.696,2,1.684,1.703c0,0,23.68-6.21,23.68-6.21C75.648,115.892,120.907,54.643,83.418,16.402z M50.121,93.937
				c-7.382-0.003-14.699-1.866-21.158-5.389c-0.31-0.168-0.672-0.211-1.013-0.123l-21.889,5.74l5.845-21.343
				c0.098-0.356,0.049-0.737-0.136-1.057C-5.299,42.77,16.451,5.082,50.14,5.376c23.813-0.48,44.778,20.485,44.277,44.298
				C94.407,74.08,74.545,93.937,50.121,93.937z"></path>
      <path d="M43.577,41.64c0.761-1.524,0.117-2.812-0.094-3.234c-0.792-1.843-2.71-6.71-3.496-8.423
				c-1.112-2.469-2.529-2.73-3.767-2.781c-2.361,0.015-4.073-0.533-6.518,2.075c-1.24,1.323-4.145,4.42-4.145,10.222
				c0.061,5.74,3.481,10.629,5.14,12.929c5.652,8.378,12.714,14.55,19.883,17.378c6.625,2.612,9.798,3.144,11.849,3.143
				c0.987-0.002,1.634-0.114,2.474-0.198c1.301-0.118,3.18-0.884,4.904-1.999c0.642-0.415,0.825-1.271,0.411-1.912
				c-0.416-0.643-1.272-0.823-1.912-0.411c-1.976,1.209-2.962,1.537-4.295,1.638c-1.793,0.212-4.028,0.474-12.416-2.833
				c-6.753-2.625-13.608-8.791-18.901-16.779c-3.971-5.15-6.912-13.446-0.974-19.285c1.515-1.74,2.758-1.136,4.385-1.204
				c0.607,0.025,0.859,0.036,1.363,1.157c0.693,1.501,2.896,7.071,3.542,8.52c0.308,0.622,0.11,0.678-0.068,1.092
				c-0.55,1.199-1.614,2.276-2.426,3.207c-0.529,0.526-1.935,1.923-0.721,4.005c0.852,1.461,3.204,5.19,6.621,8.235
				c3.812,3.399,7.174,4.858,8.789,5.559c1.248,0.46,2.761,1.801,4.819-0.304c0.573-0.655,2.882-3.355,3.721-4.616
				c0.25-0.41,0.31-0.23,0.945-0.038c1.477,0.586,7.062,3.353,9.218,4.421c0.068,0.54,0.013,2.193-0.732,4.281
				c-0.591,1.702,1.962,2.642,2.605,0.929c0.957-2.682,1.194-5.519,0.548-6.601c-0.506-0.889-1.721-1.333-2.755-1.856
				c-0.066-0.033-6.663-3.309-7.941-3.773c-0.901-0.329-2.781-1.015-4.19,1.104c-0.695,1.042-2.81,3.537-3.503,4.329
				c-0.266,0.289-0.197,0.215-0.811-0.041c-2.424-1.122-4.818-1.92-8.874-5.459c-3.121-2.783-5.287-6.217-6.073-7.565
				c-0.076-0.132-0.098-0.207-0.107-0.212c0.5-0.597,1.089-1.156,1.614-1.844C42.505,43.602,43.155,42.617,43.577,41.64z"></path>
    </g>
  </g>
</svg>
